<?xml version="1.0" standalone="no"?><svg xmlns="http://www.w3.org/2000/svg" viewBox="0 0 1440 320"><path fill="#a5e267" fill-opacity="5" d="M0,224L18.5,186.7C36.9,149,74,75,111,74.7C147.7,75,185,149,222,165.3C258.5,181,295,139,332,128C369.2,117,406,139,443,149.3C480,160,517,160,554,181.3C590.8,203,628,245,665,261.3C701.5,277,738,267,775,234.7C812.3,203,849,149,886,138.7C923.1,128,960,160,997,154.7C1033.8,149,1071,107,1108,112C1144.6,117,1182,171,1218,208C1255.4,245,1292,267,1329,261.3C1366.2,256,1403,224,1422,208L1440,192L1440,320L1421.5,320C1403.1,320,1366,320,1329,320C1292.3,320,1255,320,1218,320C1181.5,320,1145,320,1108,320C1070.8,320,1034,320,997,320C960,320,923,320,886,320C849.2,320,812,320,775,320C738.5,320,702,320,665,320C627.7,320,591,320,554,320C516.9,320,480,320,443,320C406.2,320,369,320,332,320C295.4,320,258,320,222,320C184.6,320,148,320,111,320C73.8,320,37,320,18,320L0,320Z"></path></svg>